<svg id="f5271afd-cd9c-4c5a-8ea4-32939934bf5b" data-name="Layer 1" xmlns="http://www.w3.org/2000/svg" viewBox="0 0 655.4 682.7"><defs><style>.aeff3d1c-5115-4090-9940-5242e6d017a9{fill:#f189a7;}.b001caa4-fc64-4302-9ec8-73872765ab12{fill:#d2577c;}.b0ebb9eb-8459-478f-b256-3915c6eb719f{fill:#f7b8ca;}.e7433b4c-5f0d-40d2-a517-d23b5836ef33{fill:#fde9ef;}.e44e523f-d52f-4e98-aaee-4fbf375e9d5d{fill:#fceaa9;}.b03b6f2e-3d12-4c22-a696-f662e2417d15{fill:#e7872c;}.bebec88c-a621-43d2-a627-15486c7c37ad{fill:#fdfbeb;}.e069c823-947f-4411-b97a-690909d84624{fill:#fcfefe;}.ee185169-5945-4818-b672-9d410d54f98c{fill:#935435;}.b1b79c5c-bf88-4f71-a77c-8b028c564044{fill:#714224;}.e1719305-8a26-4b36-b1d5-8c99ec1ff0e8{fill:#ca896c;}.e93657ca-0f52-4520-aa66-ef7b4a7abfe4{fill:#e3a388;}.ba7224d8-78aa-4021-9bc3-55dafca07153{fill:#fbf3c8;}.f90071f0-5040-4a71-81ab-102b760516b6{fill:#ffe0a0;}.bca2bbde-81fe-476e-9f79-484d62389b95{fill:#bae1e0;}.f82b8fd1-b0dc-4c44-8512-ace068ab0f4e{fill:#86b9bc;}.bf9837a8-d8b0-4d67-9dbe-a19a4d6dc675,.f5a08857-9cd5-416b-b424-3db1586c5130{fill:#e41f42;}.bdb51235-c02a-4f7b-a9ab-4a8c1b41c372{fill:#c80632;}.a2c077e2-7fa3-485c-9c73-9576011b2b7e{fill:#fff;}.f5a08857-9cd5-416b-b424-3db1586c5130{stroke:#c80632;stroke-miterlimit:10;stroke-width:4px;}</style></defs><title>Banana Split JS3.7</title><path class="aeff3d1c-5115-4090-9940-5242e6d017a9" d="M260.3,218.1a92.4,92.4,0,0,0,9-40,93.4,93.4,0,0,0-186.8,0,92.4,92.4,0,0,0,9,40c-37.5,10.6-62,28-62,47.7,0,32.2,65.6,58.4,146.4,58.4S322.3,298,322.3,265.8C322.3,246.1,297.8,228.7,260.3,218.1Z"/><path class="b001caa4-fc64-4302-9ec8-73872765ab12" d="M175.9,326.7c-39.4,0-76.5-6.2-104.4-17.3S27,282.5,27,265.8c0-19.9,22.2-37.8,61-49.3a95.9,95.9,0,1,1,175.8,0c38.8,11.5,61,29.4,61,49.3,0,16.7-15.8,32.2-44.5,43.6S215.3,326.7,175.9,326.7Zm0-239.5A91,91,0,0,0,85,178.1,90,90,0,0,0,93.8,217l1.2,2.7-2.8.8C54.5,231.1,32,248.1,32,265.8c0,14.3,15.1,28.5,41.3,39s63.8,16.9,102.6,16.9,75.2-6,102.6-16.9,41.3-24.7,41.3-39c0-17.7-22.5-34.7-60.2-45.3l-2.8-.8,1.3-2.7a89.9,89.9,0,0,0,8.7-38.9A91,91,0,0,0,175.9,87.2Z"/><path class="b0ebb9eb-8459-478f-b256-3915c6eb719f" d="M89.7,206.4l2.7-.9c1.8-.9,2.5-2.7,3.2-4.3a17.2,17.2,0,0,0,1.1-5.3c.3-2.2.2-3.3.4-6.5.2-6.5.4-8,.5-8.8a25.2,25.2,0,0,1,1.1-5.6,22.8,22.8,0,0,1,3.9-6.6,24.2,24.2,0,0,1,6-4.9c3.8-2.4,6.4-4,7.8-3.1s-.5,6,.6,15.6a46.4,46.4,0,0,0,1.4,7.3,47.6,47.6,0,0,0,4.6,10.1c1.7,3,3.4,5.3,6.3,6.4a8,8,0,0,0,6,.2,7.7,7.7,0,0,0,4-4c1.7-3,1.3-5.2,1.7-11.3a69.5,69.5,0,0,1,1.4-11.6,72.5,72.5,0,0,1,3.3-9.1,59.3,59.3,0,0,1,5.3-10.7c2.3-3.7,3.8-5.1,5.7-5.5a6.4,6.4,0,0,1,3.6.4c4.3,1.9,3.4,8.7,7.2,21.6a74.1,74.1,0,0,0,3.6,10.1,43.1,43.1,0,0,0,6.3,10.3,18.9,18.9,0,0,0,6.8,5.4,11.6,11.6,0,0,0,6.6,1.2,10.6,10.6,0,0,0,5.5-2.3A12.6,12.6,0,0,0,199,191a14.4,14.4,0,0,0,1.4-6.1c.7-6.6.8-8.8.8-8.8.4-7.3.4-7.7.7-9.4a24.7,24.7,0,0,1,2.4-7.5,19.8,19.8,0,0,1,6.6-7.7,14.7,14.7,0,0,1,8.5-2.6,12.7,12.7,0,0,1,5.8,2,13.2,13.2,0,0,1,4.7,4.6,15.8,15.8,0,0,1,2.2,5.8c.4,2,.4,3,.7,7.9s.6,7.7.7,8.4c.7,5.4,1.4,6.9,2.1,7.9s2,3.3,4.3,3.7a6,6,0,0,0,5.4-2l.7-1.1c1.3-2.3,1.5-4.2,2.1-7a54.7,54.7,0,0,1,1.8-6.1,7.5,7.5,0,0,1,2-3.2.7.7,0,0,1,.3-.3,6.7,6.7,0,0,1,4.1-1.6,7.5,7.5,0,0,1,5,2c1.5,1.5,1.7,3.2,2.2,6.6a58,58,0,0,1,.4,9.1,20.4,20.4,0,0,0,.2,6c.7,2.9,1.9,3.5,2.2,3.7a2.7,2.7,0,0,0,1.5.2,95.1,95.1,0,0,0,1.7-17.8,93.4,93.4,0,0,0-186.8,0A91.8,91.8,0,0,0,87.4,207Z"/><path class="b001caa4-fc64-4302-9ec8-73872765ab12" d="M85.7,209.9l-.7-2.1a95.9,95.9,0,1,1,187-30.1,93.8,93.8,0,0,1-1.8,18.3l-.3,1.8-1.9.2a4.4,4.4,0,0,1-2.8-.5c-1.6-.8-2.8-2.6-3.5-5.3a17.4,17.4,0,0,1-.4-5.9v-.9a49.8,49.8,0,0,0-.4-8.5c-.4-3.5-.6-4.4-1.4-5.2a5,5,0,0,0-3.2-1.3,4.6,4.6,0,0,0-2.6,1l-.2.2a5.3,5.3,0,0,0-1.3,2.2c-1.3,3.9-1.8,5.8-1.8,5.8s-.2,1.1-.3,1.5a18.7,18.7,0,0,1-2,6.2,5.6,5.6,0,0,1-1,1.5,8.6,8.6,0,0,1-7.7,2.9c-3.4-.7-5.1-3.4-6-4.8s-1.8-3.7-2.5-9c0-.6-.3-2.2-.7-8.5v-2a26.5,26.5,0,0,0-.6-5.6,12.9,12.9,0,0,0-1.8-5,12.5,12.5,0,0,0-3.9-3.8,11.8,11.8,0,0,0-4.7-1.6,11,11,0,0,0-6.9,2.2,16.2,16.2,0,0,0-5.8,6.8,22.8,22.8,0,0,0-2.1,6.8,32.9,32.9,0,0,0-.5,5.1c0,1-.1,2.3-.2,4l-.8,8.9a15.9,15.9,0,0,1-1.7,6.9,13.1,13.1,0,0,1-3.3,4.3,13.5,13.5,0,0,1-6.8,2.9,14,14,0,0,1-7.9-1.4,19.6,19.6,0,0,1-7.6-6.1c-.9-1-3.7-4.1-6.7-10.9a66.4,66.4,0,0,1-3.8-10.4c-1.4-4.7-2.1-8.6-2.8-11.7-1-5.2-1.5-7.7-3.1-8.4a5.1,5.1,0,0,0-2-.2c-.7.2-1.8.7-4.1,4.4a61.7,61.7,0,0,0-5.1,10.3c-1.7,4.3-2.6,6.4-3.1,8.8a62.3,62.3,0,0,0-1.4,11.2c-.1,1.3-.1,2.4-.1,3.4-.2,3.8-.3,6-1.9,8.9a9.8,9.8,0,0,1-13.1,5c-3.7-1.5-5.8-4.5-7.5-7.6A45.7,45.7,0,0,1,116,184a42.5,42.5,0,0,1-1.5-7.7,50.8,50.8,0,0,1,.1-11.3c.1-.7.1-1.6.2-2.2a38.6,38.6,0,0,0-4.9,2.8,24,24,0,0,0-5.4,4.4,20.1,20.1,0,0,0-3.4,5.8,25.5,25.5,0,0,0-1,5.1c-.1.9-.3,2.6-.5,8.6v1.9c-.1,1.9-.1,3-.3,4.8a24,24,0,0,1-1.3,5.9c-.7,1.8-1.7,4.3-4.3,5.6a15.8,15.8,0,0,1-3.2,1.1h0a19.8,19.8,0,0,1-2.6.6ZM176.1,86.8a91,91,0,0,0-90.9,90.9A92.9,92.9,0,0,0,89,204l2.3-.7c.9-.5,1.4-1.7,2-3.1a16.3,16.3,0,0,0,.9-4.6c.2-1.6.2-2.6.3-4.4v-1.9c.2-6.2.4-8,.5-9a30.9,30.9,0,0,1,1.3-6.1,22.7,22.7,0,0,1,4.3-7.4,28.2,28.2,0,0,1,6.5-5.5c4.5-2.8,7.7-4.8,10.5-3s2.2,4.1,1.9,7.2a41.7,41.7,0,0,0-.1,10.2,31.7,31.7,0,0,0,1.3,6.9,44.9,44.9,0,0,0,4.4,9.6c1.5,2.7,2.9,4.5,5,5.3a5.4,5.4,0,0,0,4.1.2,5.3,5.3,0,0,0,2.8-2.9c1.1-1.9,1.1-3.3,1.3-6.7,0-1,0-2.2.1-3.5a64.5,64.5,0,0,1,1.5-12,67.1,67.1,0,0,1,3.4-9.5,54.6,54.6,0,0,1,5.5-11.1c2.3-3.8,4.3-6,7.3-6.7a9.3,9.3,0,0,1,5.1.6c3.9,1.7,4.7,5.8,5.9,11.9.6,3.1,1.4,6.8,2.7,11.3a64,64,0,0,0,3.5,9.7c2.8,6.1,5.1,8.8,5.9,9.7a16.8,16.8,0,0,0,5.9,4.8,9.5,9.5,0,0,0,5.3,1.1,9.1,9.1,0,0,0,4.2-1.8,10.6,10.6,0,0,0,2.1-2.7,13.9,13.9,0,0,0,1.1-5.2l.8-8.7c.1-1.7.2-3,.2-4a32.1,32.1,0,0,1,.6-5.8,27.9,27.9,0,0,1,2.5-8.1,22.7,22.7,0,0,1,7.5-8.7c1.7-1,5.2-3.3,10-3a16.6,16.6,0,0,1,6.9,2.3,17.4,17.4,0,0,1,5.6,5.4,18.8,18.8,0,0,1,2.5,6.6,38.4,38.4,0,0,1,.7,6.4v2c.4,6.1.6,7.7.7,8.2.7,5.3,1.4,6.4,1.7,6.9s1.6,2.3,2.7,2.5a3.5,3.5,0,0,0,3-1.1l.4-.7a13.5,13.5,0,0,0,1.5-4.8l.3-1.5c.1-.1.5-2.2,2-6.4a10.4,10.4,0,0,1,2.5-4.2l.4-.4a9.3,9.3,0,0,1,12.6.5c2.1,2.1,2.4,4.5,2.9,8.1a61.9,61.9,0,0,1,.4,9.5v.9a17.6,17.6,0,0,0,0,2.3,103.6,103.6,0,0,0,.7-11.2A91,91,0,0,0,176.1,86.8Z"/><path class="e7433b4c-5f0d-40d2-a517-d23b5836ef33" d="M212.3,253.8a51,51,0,0,1-12.5-1.5c-5.9,7.7-14.3,12.5-23.6,12.5s-17.5-4.8-23.5-12.4a52.8,52.8,0,0,1-12.1,1.4c-23,0-42.1-14.7-45.6-34a36,36,0,0,0-.7,6.6c0,22.3,20.8,40.4,46.3,40.4a52.8,52.8,0,0,0,12.1-1.4c6,7.7,14.3,12.5,23.5,12.5s17.7-4.8,23.6-12.6a51,51,0,0,0,12.5,1.5c25.5,0,46.2-18.1,46.2-40.4a36,36,0,0,0-.6-6.6C254.3,239.1,235.3,253.8,212.3,253.8Z"/><path class="aeff3d1c-5115-4090-9940-5242e6d017a9" d="M121.8,123.8a2.7,2.7,0,0,1-1.7-.6,2.6,2.6,0,0,1-.2-3.6,40.5,40.5,0,0,1,7.4-6.3l3.5-2c1.2-.5,2.4-1.1,3.6-1.5a75.8,75.8,0,0,1,8-2.8,2.5,2.5,0,0,1,3.1,1.8,2.4,2.4,0,0,1-1.8,3,64.9,64.9,0,0,0-7.4,2.6l-3.3,1.4-3,1.7a33.3,33.3,0,0,0-6.4,5.5A2.7,2.7,0,0,1,121.8,123.8Z"/><path class="aeff3d1c-5115-4090-9940-5242e6d017a9" d="M209.2,109.9a2.4,2.4,0,0,1-1.8-.7c-1.9-1.8-3.9-3.5-5.9-5.1l-3-2.1-2.9-1.7a31.7,31.7,0,0,0-8-2.8,2.5,2.5,0,0,1,1.1-4.9,41.8,41.8,0,0,1,9.2,3.2l3.4,2,3.2,2.3a84.2,84.2,0,0,1,6.4,5.5,2.6,2.6,0,0,1,.1,3.6A2.6,2.6,0,0,1,209.2,109.9Z"/><path class="aeff3d1c-5115-4090-9940-5242e6d017a9" d="M130.3,162h-.1a2.6,2.6,0,0,1-2.4-2.7,39.5,39.5,0,0,1,1.7-9.6c.4-1.2.9-2.5,1.4-3.7l1.8-3.5a65.9,65.9,0,0,1,4.4-7.2,2.5,2.5,0,1,1,4.1,2.9,57.2,57.2,0,0,0-4.1,6.7,31.8,31.8,0,0,0-1.6,3.2,17.5,17.5,0,0,0-1.2,3.2,28.4,28.4,0,0,0-1.5,8.3A2.6,2.6,0,0,1,130.3,162Z"/><path class="aeff3d1c-5115-4090-9940-5242e6d017a9" d="M100.9,145.2a2.7,2.7,0,0,1-2.3-1.4,2.6,2.6,0,0,1,1.2-3.3,38.6,38.6,0,0,1,5.1-2l2.1-.5,2.2-.5,4.6-.7a2.5,2.5,0,0,1,.6,5l-4.3.6-2,.4-1.8.5A32,32,0,0,0,102,145Z"/><path class="aeff3d1c-5115-4090-9940-5242e6d017a9" d="M197.7,149.7a2.3,2.3,0,0,1-1.6-.6,2.4,2.4,0,0,1-.4-3.5,51.1,51.1,0,0,1,4.5-4.8l2-1.9,2.1-1.7c1.5-1.2,3-2.4,4.6-3.5a2.5,2.5,0,1,1,2.9,4.1c-1.5,1-2.9,2.2-4.3,3.3l-2,1.6-1.8,1.7a42,42,0,0,0-4.1,4.4A2.5,2.5,0,0,1,197.7,149.7Z"/><path class="aeff3d1c-5115-4090-9940-5242e6d017a9" d="M178.7,133.6a2.5,2.5,0,0,1-2.4-1.8l-1.8-5.4-.9-2.5c-.2-.8-.6-1.6-.9-2.5s-1.6-3.9-2.5-5.8a2.5,2.5,0,0,1,1.1-3.3,2.5,2.5,0,0,1,3.4,1.2c.9,1.9,1.8,4,2.6,6.1a27.7,27.7,0,0,1,1,2.6l.9,2.5c.7,1.9,1.3,3.8,1.9,5.6a2.5,2.5,0,0,1-1.7,3.2Z"/><path class="aeff3d1c-5115-4090-9940-5242e6d017a9" d="M235.7,125.3H234c-2-.1-3.9-.1-5.8-.3a2.5,2.5,0,0,1-2.3-2.6,2.6,2.6,0,0,1,2.6-2.4c1.8.2,3.7.2,5.5.3h5.1a55.9,55.9,0,0,0,5.9-.8,2.4,2.4,0,0,1,2.9,2,2.4,2.4,0,0,1-2,2.9c-2.1.4-4.3.7-6.5.9h-3.7Z"/><path class="e44e523f-d52f-4e98-aaee-4fbf375e9d5d" d="M382.6,218.4a94.5,94.5,0,0,1-9.1-40.8c0-52.7,42.4-95.4,94.7-95.4s94.6,42.7,94.6,95.4a94.5,94.5,0,0,1-9.1,40.8c38,10.8,62.9,28.6,62.9,48.7,0,32.9-66.5,59.6-148.4,59.6S319.8,300,319.8,267.1C319.8,247,344.6,229.2,382.6,218.4Z"/><path class="b03b6f2e-3d12-4c22-a696-f662e2417d15" d="M468.2,329.2c-40,0-77.6-6.2-105.9-17.6s-45-27.5-45-44.5c0-20.3,22.4-38.6,61.8-50.3a97.6,97.6,0,0,1-8.1-39.2c0-54,43.6-97.9,97.2-97.9s97.1,43.9,97.1,97.9a97.6,97.6,0,0,1-8.1,39.2c39.4,11.7,61.9,30,61.9,50.3,0,17-16,32.8-45.1,44.5S508.1,329.2,468.2,329.2Zm0-244.5c-50.9,0-92.2,41.7-92.2,92.9a91.7,91.7,0,0,0,8.8,39.7l1.3,2.7-2.8.8c-38.2,10.9-61,28.2-61,46.3,0,14.6,15.2,29.2,41.9,39.8s64.6,17.3,104,17.3,76.2-6.1,104-17.3,41.9-25.2,41.9-39.8c0-18.1-22.8-35.4-61-46.3l-2.9-.8,1.3-2.7a91.7,91.7,0,0,0,8.8-39.7C560.3,126.4,519,84.7,468.2,84.7Z"/><path class="bebec88c-a621-43d2-a627-15486c7c37ad" d="M555.6,206.5a15,15,0,0,1-2.8-1c-1.8-.9-2.5-2.8-3.2-4.4a18.2,18.2,0,0,1-1.1-5.4,55.4,55.4,0,0,1-.4-6.6c-.3-6.6-.4-8.2-.6-9a25,25,0,0,0-1.1-5.7,19.1,19.1,0,0,0-4-6.7,22.1,22.1,0,0,0-6-5.1c-3.8-2.4-6.4-4.1-7.9-3.1s.5,6.1-.6,15.9a53.7,53.7,0,0,1-1.4,7.5,58.5,58.5,0,0,1-4.7,10.3c-1.7,3-3.5,5.4-6.4,6.6a8.8,8.8,0,0,1-6.1.2,8.6,8.6,0,0,1-4-4.1c-1.8-3.2-1.4-5.4-1.8-11.6a72,72,0,0,0-1.4-11.8,60.3,60.3,0,0,0-3.3-9.4,65.1,65.1,0,0,0-5.4-10.9c-2.3-3.8-3.8-5.2-5.8-5.6a6.4,6.4,0,0,0-3.6.4c-4.3,1.9-3.5,8.9-7.3,22.1a82.1,82.1,0,0,1-3.7,10.3,45.1,45.1,0,0,1-6.4,10.5c-1.8,2-3.6,4.1-6.8,5.5a11.2,11.2,0,0,1-6.7,1.3,10.8,10.8,0,0,1-5.6-2.4,13.3,13.3,0,0,1-2.8-3.6c-1-1.9-1.2-3.6-1.4-6.2l-.8-9c-.4-7.4-.4-7.9-.7-9.6a25.2,25.2,0,0,0-2.4-7.6,19.9,19.9,0,0,0-6.7-7.9,13.9,13.9,0,0,0-8.6-2.6,11.8,11.8,0,0,0-5.9,1.9,15.8,15.8,0,0,0-4.8,4.7,16.8,16.8,0,0,0-2.2,6c-.5,2-.5,3-.8,8.1s-.6,7.9-.7,8.5c-.6,5.5-1.4,7.1-2.1,8.1s-2,3.4-4.3,3.8a6.1,6.1,0,0,1-5.5-2.1,4.2,4.2,0,0,1-.7-1.1c-1.3-2.4-1.5-4.3-2.1-7.1,0,0-.5-2.1-1.9-6.3a8.1,8.1,0,0,0-2-3.2l-.3-.3a6.8,6.8,0,0,0-4.2-1.6,6.5,6.5,0,0,0-5,2c-1.5,1.5-1.8,3.2-2.3,6.7a60.6,60.6,0,0,0-.4,9.3,15.7,15.7,0,0,1-.2,6.1c-.7,3-1.9,3.6-2.2,3.8a2.1,2.1,0,0,1-1.5.2,98.5,98.5,0,0,1-1.7-18.2c0-52.6,42.4-95.3,94.7-95.3s94.7,42.7,94.7,95.3a95.1,95.1,0,0,1-4.8,29.9Z"/><path class="b03b6f2e-3d12-4c22-a696-f662e2417d15" d="M559.6,209.9l-2.1-.4-2.6-.6h0a20.7,20.7,0,0,1-3.3-1.2c-2.6-1.3-3.6-3.8-4.3-5.6A21.9,21.9,0,0,1,546,196a39.1,39.1,0,0,1-.3-4.9v-1.9c-.3-6.1-.4-7.9-.5-8.8a24.4,24.4,0,0,0-1.1-5.2,16.4,16.4,0,0,0-3.5-5.9,19.5,19.5,0,0,0-5.4-4.6,29.6,29.6,0,0,0-5-2.8,21.5,21.5,0,0,0,.2,2.3,52.6,52.6,0,0,1,.1,11.5,43.9,43.9,0,0,1-1.5,7.9,61.4,61.4,0,0,1-4.9,10.8c-1.8,3.1-3.9,6.2-7.7,7.7a10.3,10.3,0,0,1-7.9.2,10.9,10.9,0,0,1-5.3-5.2c-1.7-3-1.7-5.3-1.9-9.1,0-1.1-.1-2.2-.2-3.6a55.7,55.7,0,0,0-1.3-11.3,68.4,68.4,0,0,0-3.2-9,61.6,61.6,0,0,0-5.2-10.6c-2.1-3.4-3.2-4.3-4.2-4.5a4.5,4.5,0,0,0-2.1.3c-1.5.6-2.1,3.2-3.1,8.5a120.5,120.5,0,0,1-2.8,12,81.5,81.5,0,0,1-3.8,10.6c-3.1,6.9-5.9,10.1-6.8,11.1s-4,4.6-7.7,6.2a15.4,15.4,0,0,1-8,1.5,14.7,14.7,0,0,1-6.9-3,14.3,14.3,0,0,1-3.4-4.3,20.5,20.5,0,0,1-1.7-7.1c-.6-6.8-.8-9-.8-9.1-.1-1.7-.2-3-.2-4.1a33.2,33.2,0,0,0-.5-5.2,23.9,23.9,0,0,0-2.1-7,17.6,17.6,0,0,0-5.9-6.9,11.4,11.4,0,0,0-7-2.3,10.8,10.8,0,0,0-4.8,1.7,12,12,0,0,0-4,3.9,15.4,15.4,0,0,0-1.9,5.1,37.6,37.6,0,0,0-.6,5.7v2c-.4,6.5-.6,8.1-.7,8.7-.7,6-1.6,7.9-2.4,9.2s-2.7,4.2-6.1,4.8a8.4,8.4,0,0,1-7.8-2.9,4.4,4.4,0,0,1-1-1.5,19.5,19.5,0,0,1-2.1-6.3c-.1-.4-.2-1-.3-1.5a47.2,47.2,0,0,0-1.8-5.9,4.7,4.7,0,0,0-1.3-2.4h-.2a5,5,0,0,0-2.7-1.1,5,5,0,0,0-3.2,1.3c-.8.9-1,2-1.5,5.4a53.2,53.2,0,0,0-.4,8.7v1a17.6,17.6,0,0,1-.4,5.9c-.6,2.8-1.8,4.6-3.5,5.5a5,5,0,0,1-2.8.4l-1.9-.2-.3-1.8a97.2,97.2,0,0,1-1.8-18.7c0-53.9,43.6-97.8,97.2-97.8s97.2,43.9,97.2,97.8a99.6,99.6,0,0,1-4.9,30.7Zm-30.2-53.2c2.3,0,5,1.7,8.4,3.8a26.8,26.8,0,0,1,6.6,5.6,21.5,21.5,0,0,1,4.3,7.4,23.5,23.5,0,0,1,1.3,6.2c.2,1.1.3,3,.6,9.3v1.9c0,1.9.1,2.9.2,4.5a23.6,23.6,0,0,0,1,4.8c.6,1.3,1.1,2.6,2.1,3.1a11.3,11.3,0,0,0,2.2.7,90.4,90.4,0,0,0,4-26.9c0-51.2-41.4-92.8-92.2-92.8s-92.2,41.6-92.2,92.8a78.4,78.4,0,0,0,.8,11.9,25.3,25.3,0,0,0-.1-2.7v-1a64.6,64.6,0,0,1,.4-9.7c.5-3.7.9-6.1,3-8.2a9.3,9.3,0,0,1,6.9-2.7,9.5,9.5,0,0,1,5.8,2.2l.4.4a11,11,0,0,1,2.6,4.2c1.4,4.3,1.9,6.5,1.9,6.5l.3,1.7a15.1,15.1,0,0,0,1.6,4.8l.4.7a3.7,3.7,0,0,0,3.1,1.2c1.1-.2,1.9-1.2,2.7-2.6s1.1-1.7,1.8-7.1c0-.5.2-2.1.6-8.4l.2-2a31.1,31.1,0,0,1,.7-6.5,16.8,16.8,0,0,1,2.5-6.7,15.9,15.9,0,0,1,5.6-5.5,15,15,0,0,1,7-2.3,15.7,15.7,0,0,1,10.1,3,21.8,21.8,0,0,1,7.6,8.9,26.1,26.1,0,0,1,2.6,8.2,33.7,33.7,0,0,1,.6,5.9c0,1.1.1,2.4.2,4.1l.8,8.9c.2,2.5.4,3.8,1.2,5.3a9.9,9.9,0,0,0,2.1,2.8,8.4,8.4,0,0,0,4.3,1.8,10,10,0,0,0,5.4-1,17.2,17.2,0,0,0,5.9-5c.8-.9,3.2-3.7,6-9.9a66.6,66.6,0,0,0,3.6-9.9c1.3-4.6,2.1-8.4,2.7-11.6,1.2-6.2,2-10.3,6-12.1a9.3,9.3,0,0,1,5.1-.6c3.1.7,5.1,3,7.5,6.8a70.3,70.3,0,0,1,5.5,11.3,77.8,77.8,0,0,1,3.4,9.7,67.8,67.8,0,0,1,1.5,12.2c.1,1.4.2,2.6.2,3.7.1,3.5.2,4.9,1.3,6.9a5.6,5.6,0,0,0,2.8,2.9,5.2,5.2,0,0,0,4.2-.2c2.2-.8,3.6-2.7,5.1-5.4a53.5,53.5,0,0,0,4.5-9.9,39.5,39.5,0,0,0,1.3-7,43.3,43.3,0,0,0-.1-10.4c-.3-3.2-.6-5.9,1.8-7.4A4.9,4.9,0,0,1,529.4,156.7Z"/><path class="e069c823-947f-4411-b97a-690909d84624" d="M433,253.8a51.6,51.6,0,0,0,12.5-1.5c6,7.8,14.3,12.7,23.7,12.7s17.6-4.9,23.5-12.6a54.3,54.3,0,0,0,12.2,1.4c23.1,0,42.3-14.9,45.8-34.3a35.1,35.1,0,0,1,.7,6.6c0,22.6-20.8,40.9-46.5,40.9a54.3,54.3,0,0,1-12.2-1.4c-5.9,7.7-14.3,12.6-23.5,12.6s-17.7-4.9-23.7-12.7A51.6,51.6,0,0,1,433,267c-25.7,0-46.5-18.3-46.5-40.9a35.2,35.2,0,0,1,.6-6.6C390.7,238.9,409.9,253.8,433,253.8Z"/><path class="e44e523f-d52f-4e98-aaee-4fbf375e9d5d" d="M523.9,123a2.7,2.7,0,0,1-1.9-.8,33.3,33.3,0,0,0-6.4-5.5,30.7,30.7,0,0,0-3.1-1.7l-3.2-1.4a66.5,66.5,0,0,0-7.5-2.6,2.4,2.4,0,0,1-1.7-3,2.5,2.5,0,0,1,3.1-1.8,75.8,75.8,0,0,1,8,2.8l3.5,1.5c1.3.6,2.4,1.3,3.6,2a40.5,40.5,0,0,1,7.4,6.3,2.5,2.5,0,0,1-.2,3.6A2.3,2.3,0,0,1,523.9,123Z"/><path class="e44e523f-d52f-4e98-aaee-4fbf375e9d5d" d="M436.1,109.1a2.3,2.3,0,0,1-1.8-.8,2.5,2.5,0,0,1,.1-3.5,84.2,84.2,0,0,1,6.4-5.5L444,97l3.5-2a37.2,37.2,0,0,1,9.2-3.2,2.5,2.5,0,1,1,1,4.9,31.7,31.7,0,0,0-8,2.8l-3,1.7-2.9,2.1a71.9,71.9,0,0,0-5.9,5.1A2.4,2.4,0,0,1,436.1,109.1Z"/><path class="e44e523f-d52f-4e98-aaee-4fbf375e9d5d" d="M515.3,161.2a2.6,2.6,0,0,1-2.5-2.4,28.4,28.4,0,0,0-1.5-8.3c-.3-1.1-.8-2.2-1.2-3.3l-1.6-3.1a75.7,75.7,0,0,0-4.2-6.7,2.6,2.6,0,0,1,.7-3.5,2.4,2.4,0,0,1,3.4.6,66.7,66.7,0,0,1,4.5,7.2c.6,1.1,1.2,2.3,1.7,3.4a37.3,37.3,0,0,1,1.5,3.8,39.5,39.5,0,0,1,1.7,9.6,2.6,2.6,0,0,1-2.4,2.7Z"/><path class="e44e523f-d52f-4e98-aaee-4fbf375e9d5d" d="M544.8,144.4l-1.1-.2a27.5,27.5,0,0,0-4.3-1.7l-1.9-.5-1.9-.4-4.3-.6a2.5,2.5,0,0,1,.6-5l4.6.7,2.1.5,2.2.5a28.5,28.5,0,0,1,5.1,2,2.5,2.5,0,0,1,1.2,3.3A2.7,2.7,0,0,1,544.8,144.4Z"/><path class="e44e523f-d52f-4e98-aaee-4fbf375e9d5d" d="M447.7,148.9a2.7,2.7,0,0,1-2-.9,54.8,54.8,0,0,0-4-4.4l-1.9-1.7-2-1.6-4.3-3.3a2.5,2.5,0,0,1-.6-3.5,2.5,2.5,0,0,1,3.5-.6l4.6,3.5,2.1,1.7,2,1.9a51.1,51.1,0,0,1,4.5,4.8,2.5,2.5,0,0,1-.3,3.5A2.7,2.7,0,0,1,447.7,148.9Z"/><path class="e44e523f-d52f-4e98-aaee-4fbf375e9d5d" d="M466.7,132.8H466a2.7,2.7,0,0,1-1.7-3.2c.6-1.8,1.2-3.7,1.9-5.6l.9-2.5a27.7,27.7,0,0,1,1-2.6,56.3,56.3,0,0,1,2.7-6.1,2.5,2.5,0,1,1,4.5,2.1c-.9,1.9-1.8,3.8-2.6,5.8l-.9,2.5-.9,2.5-1.8,5.4A2.5,2.5,0,0,1,466.7,132.8Z"/><path class="e44e523f-d52f-4e98-aaee-4fbf375e9d5d" d="M409.4,124.5h-3.6a65.7,65.7,0,0,1-6.6-.9,2.4,2.4,0,0,1-2-2.9,2.5,2.5,0,0,1,2.9-2c2,.4,4,.6,6,.8h5c1.9-.1,3.8-.1,5.6-.3a2.5,2.5,0,0,1,2.6,2.4,2.5,2.5,0,0,1-2.3,2.6c-1.9.2-3.8.2-5.8.3Z"/><path class="ee185169-5945-4818-b672-9d410d54f98c" d="M424.7,235.3a113.6,113.6,0,1,0-205.3,0c-45.5,12.9-75.3,34.1-75.3,58,0,39.2,79.7,71,177.9,71s177.9-31.8,177.9-71C499.9,269.4,470.2,248.2,424.7,235.3Z"/><path class="b1b79c5c-bf88-4f71-a77c-8b028c564044" d="M322,366.8c-47.8,0-92.8-7.5-126.7-21s-53.7-32.5-53.7-52.5c0-12.4,7.5-24.5,21.6-35.1s30.9-18.1,52.8-24.5a114.7,114.7,0,0,1-10-47,116.1,116.1,0,0,1,116-116c64,0,116.1,52,116.1,116a114.7,114.7,0,0,1-10,47c21.9,6.4,40.1,14.9,52.8,24.5s21.5,22.7,21.5,35.1c0,20-19,38.7-53.6,52.5S369.9,366.8,322,366.8Zm0-291.1A111,111,0,0,0,221.7,234.3l1.3,2.6-2.9.8c-46,13-73.5,33.8-73.5,55.6,0,17.9,18,34.9,50.6,47.9s77.6,20.6,124.8,20.6,91.6-7.4,124.9-20.6,50.5-30,50.5-47.9c0-21.8-27.4-42.6-73.4-55.6l-2.9-.8,1.3-2.6A111,111,0,0,0,322,75.7Z"/><path class="e1719305-8a26-4b36-b1d5-8c99ec1ff0e8" d="M217.2,221.1a18.8,18.8,0,0,0,3.4-1.1c2.1-1.1,3-3.3,3.8-5.2a22,22,0,0,0,1.4-6.5,76.9,76.9,0,0,0,.4-7.8c.4-7.9.5-9.8.7-10.8a29,29,0,0,1,1.4-6.8,23.9,23.9,0,0,1,4.7-8,27.7,27.7,0,0,1,7.2-6c4.6-2.9,7.8-4.9,9.6-3.7s-.6,7.3.6,18.9a53.1,53.1,0,0,0,1.7,8.9,61.6,61.6,0,0,0,5.7,12.3c2,3.6,4.1,6.5,7.6,7.8a9.7,9.7,0,0,0,7.3.3,10.4,10.4,0,0,0,4.9-4.9c2-3.7,1.6-6.4,2-13.8.4-5.4.6-9.3,1.8-14,.7-3.2,1.8-5.9,3.9-11.1a80,80,0,0,1,6.4-13.1c2.9-4.5,4.7-6.2,7-6.7a8.2,8.2,0,0,1,4.3.5c5.3,2.3,4.3,10.6,8.8,26.3a78.4,78.4,0,0,0,4.5,12.3,49.8,49.8,0,0,0,7.6,12.5c2.2,2.4,4.4,4.9,8.2,6.6a15.3,15.3,0,0,0,8,1.5,12.9,12.9,0,0,0,6.7-2.9,13.2,13.2,0,0,0,3.3-4.2,17.5,17.5,0,0,0,1.7-7.4c.8-8.1,1-10.7,1-10.7.5-8.9.5-9.4.9-11.5a29.4,29.4,0,0,1,2.8-9,22.8,22.8,0,0,1,8.1-9.4,16.4,16.4,0,0,1,10.3-3.2,15.8,15.8,0,0,1,7,2.4,16.4,16.4,0,0,1,5.8,5.6,21,21,0,0,1,2.6,7.1c.6,2.4.6,3.6,1,9.6s.7,9.4.8,10.2c.8,6.5,1.7,8.4,2.5,9.6s2.5,4,5.2,4.5a7.6,7.6,0,0,0,6.6-2.5,5.6,5.6,0,0,0,.9-1.3c1.5-2.8,1.7-5.1,2.5-8.5a71.6,71.6,0,0,1,2.2-7.4,11.2,11.2,0,0,1,2.4-3.9l.3-.3a8.3,8.3,0,0,1,5.1-2,9.4,9.4,0,0,1,6.1,2.4c1.7,1.8,2.1,3.9,2.6,8.1a62,62,0,0,1,.5,11c-.1,2.6-.4,4.5.3,7.3s2.2,4.3,2.6,4.5a3,3,0,0,0,1.8.2,118,118,0,0,0,2.1-21.6,113.6,113.6,0,1,0-221.4,35.6Z"/><path class="b1b79c5c-bf88-4f71-a77c-8b028c564044" d="M212.7,224.7l-.6-2.1A115.9,115.9,0,0,1,322.2,70.2c64,0,116.1,52,116.1,116a109,109,0,0,1-2.2,22.1l-.3,1.9h-1.9a5,5,0,0,1-3-.5c-1.9-.9-3.3-2.9-4-6.1a21.6,21.6,0,0,1-.5-7,3.7,3.7,0,0,0,.1-1.1,62.5,62.5,0,0,0-.4-10.5c-.6-4.1-.9-5.5-2-6.6a6.5,6.5,0,0,0-4.2-1.7,5.4,5.4,0,0,0-3.5,1.4l-.2.2a7,7,0,0,0-1.8,2.9c-1.6,4.8-2.2,7.1-2.2,7.2a11.6,11.6,0,0,1-.4,1.8,23.7,23.7,0,0,1-2.3,7.3,9.3,9.3,0,0,1-1.2,1.8,9.9,9.9,0,0,1-8.9,3.2c-3.8-.7-5.8-3.7-6.9-5.5s-2-3.7-2.9-10.7c-.1-.7-.4-2.7-.8-10.3l-.2-2.5a36.9,36.9,0,0,0-.7-6.8,17.5,17.5,0,0,0-2.3-6.3,15.6,15.6,0,0,0-4.9-4.8,12.6,12.6,0,0,0-14.8.8,21.5,21.5,0,0,0-7.2,8.4,29.5,29.5,0,0,0-2.6,8.4,51.3,51.3,0,0,0-.5,6.3q-.2,2-.3,4.8c0,.2-.2,2.8-1,10.8-.3,3.1-.5,5.5-2,8.3a14.2,14.2,0,0,1-3.9,5,14.5,14.5,0,0,1-8,3.4,16.8,16.8,0,0,1-9.3-1.6A26,26,0,0,1,322,203c-1.1-1.2-4.3-5-8-13.1a92.3,92.3,0,0,1-4.6-12.6c-1.6-5.7-2.6-10.4-3.3-14.2-1.3-6.5-2-9.6-4.1-10.5a5.1,5.1,0,0,0-2.8-.3c-1.3.3-2.7,1.3-5.3,5.6a73.6,73.6,0,0,0-6.3,12.6c-2,5.2-3.1,7.8-3.8,10.8-1.1,4.5-1.3,8.3-1.7,13.6-.1,1.6-.1,3-.2,4.2-.1,4.5-.3,7.2-2.1,10.6a12.7,12.7,0,0,1-6.2,6,12,12,0,0,1-9.1-.3c-4.4-1.7-6.9-5.2-8.9-8.9a54.8,54.8,0,0,1-5.8-12.8,47.4,47.4,0,0,1-1.9-9.3,58.4,58.4,0,0,1,.2-13.6c.1-1.2.2-2.7.2-3.4s-4.3,2.1-6.8,3.6a29.3,29.3,0,0,0-6.6,5.5,22.8,22.8,0,0,0-4.3,7.2,28.2,28.2,0,0,0-1.2,6.3c-.2,1.1-.4,3.2-.7,10.6a14.8,14.8,0,0,1-.1,2.2,53.5,53.5,0,0,1-.3,5.8,27.9,27.9,0,0,1-1.6,7.1c-.8,2.1-2,5-5,6.5a19.1,19.1,0,0,1-3.8,1.3l-3,.8ZM322.2,75.2A111,111,0,0,0,216.1,218.8h.4a17,17,0,0,0,2.9-.9c1.3-.7,2-2.3,2.7-4s.8-2.2,1.2-5.8a43.3,43.3,0,0,0,.3-5.3,16.9,16.9,0,0,0,.1-2.3,107.2,107.2,0,0,1,.7-11,33.4,33.4,0,0,1,1.5-7.3,26.7,26.7,0,0,1,5.2-8.8,30.6,30.6,0,0,1,7.8-6.5c5.4-3.4,9.1-5.7,12.2-3.8s2.3,4.6,1.9,8.3a56.5,56.5,0,0,0-.1,12.6,59,59,0,0,0,1.6,8.4,60.9,60.9,0,0,0,5.4,11.7c1.9,3.4,3.7,5.7,6.4,6.8a7.3,7.3,0,0,0,5.4.3,8.3,8.3,0,0,0,3.7-3.8c1.3-2.4,1.4-4.2,1.5-8.4.1-1.3.2-2.7.3-4.3.3-5.6.5-9.6,1.7-14.5.8-3.4,1.9-6.1,4.1-11.5a88.1,88.1,0,0,1,6.6-13.4c2.8-4.4,5.1-7.1,8.7-7.8a9.6,9.6,0,0,1,5.7.6c4.6,2,5.5,6.8,7,14.1a128.8,128.8,0,0,0,3.2,13.8,90.7,90.7,0,0,0,4.3,11.9c3.4,7.5,6.3,10.8,7.3,11.9s3.9,4.5,7.3,6a12,12,0,0,0,6.7,1.3,10.6,10.6,0,0,0,5.4-2.3,11.8,11.8,0,0,0,2.7-3.5c1-1.9,1.2-3.4,1.5-6.4.7-7.9.9-10.6.9-10.7.1-2,.2-3.5.3-4.8a47.3,47.3,0,0,1,.6-7,35.4,35.4,0,0,1,3.1-9.7,26.4,26.4,0,0,1,8.9-10.3,19.6,19.6,0,0,1,11.9-3.6,18.5,18.5,0,0,1,8.1,2.7,21.6,21.6,0,0,1,6.6,6.4,24.4,24.4,0,0,1,3,7.9,50.3,50.3,0,0,1,.8,7.6v2.4c.5,7.5.8,9.4.8,10.1.9,6.5,1.7,7.9,2.2,8.6s2,3,3.6,3.3a4.9,4.9,0,0,0,4.2-1.6,3.1,3.1,0,0,0,.6-.9,18.5,18.5,0,0,0,1.8-5.9,10.6,10.6,0,0,0,.4-1.9c.1-.1.6-2.6,2.4-7.7a12.7,12.7,0,0,1,2.9-4.9l.5-.4a11.6,11.6,0,0,1,6.6-2.6,11.8,11.8,0,0,1,7.9,3.1c2.4,2.4,2.8,5.3,3.4,9.5a66.7,66.7,0,0,1,.5,11.5,3.7,3.7,0,0,1-.1,1.1,16.8,16.8,0,0,0,.3,5.5,3.1,3.1,0,0,1,.2.8,108.6,108.6,0,0,0,1.4-17.1A111.2,111.2,0,0,0,322.2,75.2Z"/><path class="e93657ca-0f52-4520-aa66-ef7b4a7abfe4" d="M366.2,280a64.1,64.1,0,0,1-15.3-1.9c-7.3,9.5-17.6,15.4-29,15.4s-21.5-5.9-28.8-15.3a66.8,66.8,0,0,1-14.9,1.8c-28.3,0-51.7-18.1-56.1-41.7a42.5,42.5,0,0,0-.7,8c0,27.4,25.4,49.7,56.8,49.7a66.7,66.7,0,0,0,14.9-1.7c7.3,9.4,17.5,15.2,28.8,15.2s21.7-5.9,29-15.4a64.1,64.1,0,0,0,15.3,1.9c31.4,0,56.8-22.3,56.8-49.7a42.5,42.5,0,0,0-.7-8C417.9,261.9,394.5,280,366.2,280Z"/><path class="b1b79c5c-bf88-4f71-a77c-8b028c564044" d="M257.2,123.8a2.7,2.7,0,0,1-1.7-.6,2.4,2.4,0,0,1-.2-3.5,44.8,44.8,0,0,1,8.8-7.5,33,33,0,0,1,4.1-2.3l4.3-1.9a74.6,74.6,0,0,1,9.4-3.3,2.5,2.5,0,0,1,3.1,1.8,2.4,2.4,0,0,1-1.7,3,93.7,93.7,0,0,0-8.9,3.1c-1.4.6-2.7,1.1-4,1.8a32.4,32.4,0,0,0-3.6,2A37.9,37.9,0,0,0,259,123,2.3,2.3,0,0,1,257.2,123.8Z"/><path class="b1b79c5c-bf88-4f71-a77c-8b028c564044" d="M361.7,107.2a2.2,2.2,0,0,1-1.7-.7,82.9,82.9,0,0,0-7.2-6.1l-3.5-2.6-3.6-2.1a39.6,39.6,0,0,0-9.7-3.3,2.5,2.5,0,0,1,1.1-4.9A47,47,0,0,1,348,91.3a43.6,43.6,0,0,1,4.1,2.4l3.7,2.7a78.9,78.9,0,0,1,7.6,6.5,2.6,2.6,0,0,1,.1,3.6A2.6,2.6,0,0,1,361.7,107.2Z"/><path class="b1b79c5c-bf88-4f71-a77c-8b028c564044" d="M267.4,169.5h-.1a2.5,2.5,0,0,1-2.4-2.6,40.1,40.1,0,0,1,2-11.4,33.4,33.4,0,0,1,1.7-4.4l2.1-4.2a91.9,91.9,0,0,1,5.2-8.5,2.5,2.5,0,0,1,3.5-.6,2.4,2.4,0,0,1,.6,3.4,83,83,0,0,0-4.9,8.1c-.7,1.3-1.4,2.6-2,3.9s-1,2.5-1.4,3.8a35.2,35.2,0,0,0-1.8,10.1A2.6,2.6,0,0,1,267.4,169.5Z"/><path class="b1b79c5c-bf88-4f71-a77c-8b028c564044" d="M232.2,149.5a2.8,2.8,0,0,1-2.3-1.5,2.5,2.5,0,0,1,1.2-3.3,39.2,39.2,0,0,1,6-2.3l2.5-.7,2.6-.5,5.4-.8a2.5,2.5,0,0,1,2.8,2.2,2.5,2.5,0,0,1-2.2,2.8l-5.1.7-2.4.5-2.2.6a40.1,40.1,0,0,0-5.2,2A2.3,2.3,0,0,1,232.2,149.5Z"/><path class="b1b79c5c-bf88-4f71-a77c-8b028c564044" d="M347.9,154.8a2.7,2.7,0,0,1-1.5-.5,2.6,2.6,0,0,1-.4-3.6,70.2,70.2,0,0,1,5.3-5.7l2.4-2.2,2.5-2c1.8-1.5,3.6-2.9,5.5-4.2a2.5,2.5,0,1,1,2.9,4l-5.3,4.1-2.3,1.9-2.2,2a60.3,60.3,0,0,0-4.9,5.3A2.5,2.5,0,0,1,347.9,154.8Z"/><path class="b1b79c5c-bf88-4f71-a77c-8b028c564044" d="M325.3,135.5a2.5,2.5,0,0,1-2.4-1.7c-.7-2.2-1.4-4.4-2.2-6.6l-1-3c-.4-.9-.7-1.9-1.2-2.9s-1.9-4.7-3-7a2.5,2.5,0,0,1,4.5-2.1c1.1,2.3,2.2,4.8,3.2,7.2s.8,2.2,1.2,3.1l1,3.1c.8,2.2,1.6,4.5,2.2,6.7a2.5,2.5,0,0,1-1.6,3.1Z"/><path class="b1b79c5c-bf88-4f71-a77c-8b028c564044" d="M393.5,125.6h-2.1q-3.4,0-6.9-.3a2.5,2.5,0,0,1-2.3-2.7,2.6,2.6,0,0,1,2.7-2.3c2.1.2,4.4.3,6.6.3h6c2.4-.2,4.9-.5,7.2-.9a2.5,2.5,0,0,1,.9,4.9,63.9,63.9,0,0,1-7.8,1h-4.3Z"/><path class="ba7224d8-78aa-4021-9bc3-55dafca07153" d="M638.2,298.5c0,97.3-127.4,120.4-304,120.4s-309.2,0-321-134.6c-4.8-55.5,27.5-48.1,76.9-23.1,55.9,28.3,140.4,85.5,233.8,80.6,103.8-5.4,172-55.2,222.2-95.6C578.5,220.2,638.2,258.9,638.2,298.5Z"/><path class="b03b6f2e-3d12-4c22-a696-f662e2417d15" d="M334.2,421.9h-.1c-89.1,0-165.9,0-223-17-63.3-18.7-95.3-57-100.8-120.3-1.9-21.6,1.6-35.1,10.9-41.4,12.1-8.2,32.5-3.8,70.3,15.3,9.3,4.7,19.4,10.3,30.1,16.1,52.8,28.8,125.1,68.2,202.1,64.2a322.9,322.9,0,0,0,130.1-34.3c35.3-17.7,64.3-39.6,90.5-60.6,13.9-11.2,34.4-12.1,54.8-2.3,24.8,11.8,42.1,35.2,42.1,56.9,0,47.3-28.8,79.9-87.9,99.5C504.4,414.3,434.8,421.9,334.2,421.9ZM35.7,245.3c-4.4,0-8.2.9-11.1,2.9-7.3,4.9-10.1,16.6-8.4,35.9,2.8,32,12.5,56.8,29.6,76,15.6,17.6,37.5,30.3,67,39.1,56.2,16.7,132.7,16.7,221.3,16.7h.1c99.9,0,168.9-7.5,217.3-23.6,56.3-18.7,83.7-49.4,83.7-93.8,0-19.4-15.9-40.6-38.7-51.5-18.5-8.9-36.2-8.3-48.5,1.6-26.4,21.2-55.7,43.3-91.5,61.2a326.3,326.3,0,0,1-132.5,35c-3.7.2-7.5.3-11.2.3-74.4,0-143.2-37.5-194-65.2-10.7-5.8-20.8-11.3-30-16C69.9,254.3,49.7,245.3,35.7,245.3Z"/><path class="f90071f0-5040-4a71-81ab-102b760516b6" d="M303.5,383.9c-115.3,0-227.4-52.7-287.5-116a99.5,99.5,0,0,0,.2,15.3c11.6,138.3,142.7,139,317.5,139s301.4-24.1,301.4-124c0-6.4-2-12.6-4.5-18.5C537.8,337.2,403.8,383.9,303.5,383.9Z"/><path class="bca2bbde-81fe-476e-9f79-484d62389b95" d="M388.5,583v-3c0-15.8,7.5-29.1,17.9-33.6v-8.6H248.1v8.7c10.3,4.6,17.7,17.9,17.7,33.5v3c0,15.6-7.6,26-17.7,31.8v5.5H406.4V615C396.2,609.3,388.5,598.7,388.5,583Z"/><path class="f82b8fd1-b0dc-4c44-8512-ace068ab0f4e" d="M409.4,623.3H245.1V613l1.5-.8c7.4-4.3,16.2-12.8,16.2-29.2v-3c0-14.1-6.4-26.5-15.9-30.7l-1.8-.8V534.8H409.4v13.6l-1.8.8c-9.5,4.1-16.1,16.8-16.1,30.8v3c0,13.1,5.8,23.5,16.4,29.4l1.5.8Zm-158.3-6H403.4v-.6c-11.6-7.1-17.9-19-17.9-33.7v-3c0-15.8,7.1-29.7,17.9-35.5v-3.7H251.1v3.9c10.7,5.8,17.7,19.7,17.7,35.3v3c0,14.4-6.3,26.2-17.7,33.5Z"/><path class="bca2bbde-81fe-476e-9f79-484d62389b95" d="M649.6,349a8.5,8.5,0,0,0-14.8-5.5c-38.6,42.4-162.8,73.4-310,73.4-142,0-262.6-28.9-305.6-69-5.5-5-14.4-1.3-14.4,6.1v.3c0,111.8,144.4,202.5,322.5,202.5s322.5-90.7,322.5-202.5C649.8,352.5,649.7,350.8,649.6,349Z"/><path class="f82b8fd1-b0dc-4c44-8512-ace068ab0f4e" d="M327.3,559.8c-86.7,0-168.3-21.2-229.6-59.8S1.8,409.4,1.8,354.3V354a11.1,11.1,0,0,1,6.9-10.4,11.3,11.3,0,0,1,12.5,2.1c20.7,19.3,61.3,36.6,114.3,48.8,55.2,12.7,120.7,19.4,189.3,19.4,142.4,0,268.9-29.8,307.8-72.4a11.5,11.5,0,0,1,20,7.4h0c.1,1.8.2,3.6.2,5.4,0,55.1-34.1,106.9-95.9,145.7S414,559.8,327.3,559.8ZM13.3,348.6a5.1,5.1,0,0,0-2.2.5A5.2,5.2,0,0,0,7.8,354v.3c0,110,143.3,199.5,319.5,199.5s319.5-89.5,319.5-199.5c0-1.7-.1-3.5-.2-5.2h0a5.4,5.4,0,0,0-3.6-5,5.2,5.2,0,0,0-5.9,1.5C617.5,367,577.4,385.5,521.2,399s-124.7,20.9-196.4,20.9c-139.3,0-262.9-28.1-307.7-69.8A5.3,5.3,0,0,0,13.3,348.6Z"/><path class="bca2bbde-81fe-476e-9f79-484d62389b95" d="M442.8,668.7c-36.9,8.6-77.2,5.7-115.8,8.6-38.4-1.1-79.6-.8-115.2-8.6-13.9-3.1-25.7-11.5-25.7-25.7v-2.1a25.7,25.7,0,0,1,25.7-25.7h231a25.6,25.6,0,0,1,25.6,25.7V643C468.4,657.2,456.6,665.5,442.8,668.7Z"/><path class="f82b8fd1-b0dc-4c44-8512-ace068ab0f4e" d="M327.1,680.3h-.2l-16.6-.4c-33.6-.8-68.4-1.5-99.2-8.3-17.5-3.8-28-14.5-28-28.6v-2.1a28.8,28.8,0,0,1,28.7-28.7h231a28.7,28.7,0,0,1,28.6,28.7V643c0,13.8-10.4,24.5-27.9,28.6h0c-24.9,5.8-51.6,6.4-77.4,7.1-12.8.3-26.1.6-38.9,1.6ZM211.8,618.2a22.7,22.7,0,0,0-22.7,22.7V643c0,16.4,17.8,21.5,23.3,22.7,30.2,6.7,64.7,7.4,98,8.2l16.5.4c12.9-1,26.2-1.3,39-1.6,25.5-.7,51.9-1.3,76.2-6.9,7-1.7,23.3-7.2,23.3-22.8v-2.1a22.7,22.7,0,0,0-22.6-22.7Z"/><circle class="bf9837a8-d8b0-4d67-9dbe-a19a4d6dc675" cx="329.4" cy="46.8" r="27.9"/><path class="bdb51235-c02a-4f7b-a9ab-4a8c1b41c372" d="M329.4,76.7a29.9,29.9,0,1,1,29.9-29.9A29.9,29.9,0,0,1,329.4,76.7Zm0-55.7a25.9,25.9,0,1,0,25.9,25.8A25.9,25.9,0,0,0,329.4,21Z"/><ellipse class="bf9837a8-d8b0-4d67-9dbe-a19a4d6dc675" cx="338.5" cy="10.9" rx="11.7" ry="3.5" transform="translate(48.4 185.8) rotate(-32.9)"/><path class="bdb51235-c02a-4f7b-a9ab-4a8c1b41c372" d="M330.4,20a3.9,3.9,0,0,1-3.4-1.6c-1.1-1.7-.5-3.8,1.7-6.4a31,31,0,0,1,6.8-5.7c5.3-3.5,12.3-6.3,14.6-2.9h0c2.2,3.5-3.2,8.7-8.6,12.2a32.4,32.4,0,0,1-8,3.9A13.2,13.2,0,0,1,330.4,20ZM346.3,5.9c-1.5.1-4.6,1.1-8.6,3.7a23.6,23.6,0,0,0-7,6.4,23.7,23.7,0,0,0,8.7-3.8C343.3,9.6,345.6,7.2,346.3,5.9Z"/><path class="a2c077e2-7fa3-485c-9c73-9576011b2b7e" d="M313.2,47a23.6,23.6,0,0,1,20.2-23.4,19.8,19.8,0,0,0-3.5-.3,23.7,23.7,0,1,0,0,47.4,19.8,19.8,0,0,0,3.5-.3A23.7,23.7,0,0,1,313.2,47Z"/><path class="f5a08857-9cd5-416b-b424-3db1586c5130" d="M494.5,111.2l12-7.3c2.4,4.1,4.5,7.6,9.6,7.6s7.9-1.9,7.9-9.3V51.9h14.8v50.5c0,15.4-9,22.3-22.1,22.3S498,118.6,494.5,111.2Z"/><path class="f5a08857-9cd5-416b-b424-3db1586c5130" d="M546.8,109.6l12.1-7c3.1,5.2,7.3,9,14.6,9s10-3,10-7.3-4-6.8-10.8-9.8L569,92.9c-10.7-4.5-17.7-10.2-17.7-22.3s8.4-19.5,21.6-19.5c9.4,0,16.2,3.2,21.1,11.8l-11.5,7.4c-2.6-4.6-5.3-6.4-9.6-6.4s-7,2.8-7,6.4,2.7,6.2,9,9l3.7,1.6c12.6,5.4,19.7,10.9,19.7,23.2s-10.5,20.6-24.5,20.6S551.2,118.2,546.8,109.6Z"/></svg>