<svg id="a530c601-639d-4d14-98e7-278627ab1b38" data-name="Layer 1" xmlns="http://www.w3.org/2000/svg" viewBox="0 0 289.5 226.7"><defs><style>.a168e9d1-2afe-47af-8bac-18cc32cd990b{fill:#935435;}.b288ef02-04c3-4e52-bee9-fff44ceb5578{fill:#686c6e;}.a6849d5a-06db-40b6-b3e6-2be6a9417f2c{fill:#b9e2e2;}.ace70c21-b43e-4bae-b747-60f0500bed5b{fill:#ef84a3;}</style></defs><title>command-line</title><path class="a168e9d1-2afe-47af-8bac-18cc32cd990b" d="M1213.25,847h-267A11.26,11.26,0,0,0,935,858.25v204.2a11.26,11.26,0,0,0,11.25,11.25h267a11.26,11.26,0,0,0,11.25-11.25V858.25A11.26,11.26,0,0,0,1213.25,847Zm-267,7.5h267a3.75,3.75,0,0,1,3.75,3.75V893.1H942.5V858.25a3.75,3.75,0,0,1,3.75-3.75Zm267,211.7h-267a3.74,3.74,0,0,1-3.75-3.75V900.6H1217v161.85a3.75,3.75,0,0,1-3.75,3.75Zm0,0" transform="translate(-935 -847)"/><path class="b288ef02-04c3-4e52-bee9-fff44ceb5578" d="M1137.25,878.6h8c5,0,5-7.5,0-7.5h-8c-5,0-5,7.5,0,7.5Zm0,0" transform="translate(-935 -847)"/><path class="b288ef02-04c3-4e52-bee9-fff44ceb5578" d="M1164.25,878.6h8c5,0,5-7.5,0-7.5h-8c-5,0-5,7.5,0,7.5Zm0,0" transform="translate(-935 -847)"/><path class="b288ef02-04c3-4e52-bee9-fff44ceb5578" d="M1191.25,878.6h8c5,0,5-7.5,0-7.5h-8c-5,0-5,7.5,0,7.5Zm0,0" transform="translate(-935 -847)"/><path class="b288ef02-04c3-4e52-bee9-fff44ceb5578" d="M960.25,878.6h8c5,0,5-7.5,0-7.5h-8c-5,0-5,7.5,0,7.5Zm0,0" transform="translate(-935 -847)"/><path class="a6849d5a-06db-40b6-b3e6-2be6a9417f2c" d="M968.25,936.1h-8c-5,0-5-7.5,0-7.5h8c5,0,5,7.5,0,7.5Zm0,0" transform="translate(-935 -847)"/><path class="a6849d5a-06db-40b6-b3e6-2be6a9417f2c" d="M968.25,962.6h-8c-5,0-5-7.5,0-7.5h8c5,0,5,7.5,0,7.5Zm0,0" transform="translate(-935 -847)"/><path class="a6849d5a-06db-40b6-b3e6-2be6a9417f2c" d="M968.25,989.1h-8c-5,0-5-7.5,0-7.5h8c5,0,5,7.5,0,7.5Zm0,0" transform="translate(-935 -847)"/><path class="a6849d5a-06db-40b6-b3e6-2be6a9417f2c" d="M968.25,1015.6h-8c-5,0-5-7.5,0-7.5h8c5,0,5,7.5,0,7.5Zm0,0" transform="translate(-935 -847)"/><path class="a6849d5a-06db-40b6-b3e6-2be6a9417f2c" d="M968.25,1042.1h-8c-5,0-5-7.5,0-7.5h8c5,0,5,7.5,0,7.5Zm0,0" transform="translate(-935 -847)"/><path class="a6849d5a-06db-40b6-b3e6-2be6a9417f2c" d="M1199.25,936.1h-8c-5,0-5-7.5,0-7.5h8c5,0,5,7.5,0,7.5Zm0,0" transform="translate(-935 -847)"/><path class="a6849d5a-06db-40b6-b3e6-2be6a9417f2c" d="M1199.25,962.6h-8c-5,0-5-7.5,0-7.5h8c5,0,5,7.5,0,7.5Zm0,0" transform="translate(-935 -847)"/><path class="a6849d5a-06db-40b6-b3e6-2be6a9417f2c" d="M1199.25,989.1h-8c-5,0-5-7.5,0-7.5h8c5,0,5,7.5,0,7.5Zm0,0" transform="translate(-935 -847)"/><path class="a6849d5a-06db-40b6-b3e6-2be6a9417f2c" d="M1199.25,1015.6h-8c-5,0-5-7.5,0-7.5h8c5,0,5,7.5,0,7.5Zm0,0" transform="translate(-935 -847)"/><path class="a6849d5a-06db-40b6-b3e6-2be6a9417f2c" d="M1199.25,1042.1h-8c-5,0-5-7.5,0-7.5h8c5,0,5,7.5,0,7.5Zm0,0" transform="translate(-935 -847)"/><path class="ace70c21-b43e-4bae-b747-60f0500bed5b" d="M1005.91,1020a3.75,3.75,0,0,1-2.64-6.41L1035.89,981l-32.62-32.63c-3.42-3.53,1.76-8.71,5.3-5.3l35.28,35.28a3.75,3.75,0,0,1,0,5.3l-35.28,35.28a3.79,3.79,0,0,1-2.66,1.1Zm0,0" transform="translate(-935 -847)"/><path class="ace70c21-b43e-4bae-b747-60f0500bed5b" d="M1137.25,1020h-77.5c-5,0-5-7.5,0-7.5h77.5c5,0,5,7.5,0,7.5Zm0,0" transform="translate(-935 -847)"/></svg>