<svg xmlns="http://www.w3.org/2000/svg" xmlns:xlink="http://www.w3.org/1999/xlink" viewBox="0 0 112 34" fill="#fff" fill-rule="evenodd" stroke="#000" stroke-linecap="round" stroke-linejoin="round"><use xlink:href="#A" x=".5" y=".5"/><symbol id="A" overflow="visible"><path d="M17.972 9.216h-3.33L9.83 21.702h3.015l.786-2.115h4.546l-.823-2.34h-2.997l1.947-5.373 3.466 9.828h3.014zM68.6 21.702V9.216h2.677v10.146h5.278v2.34H68.6zm15.43 0V9.216h2.677v10.146h5.28v2.34H84.02zm-30.255-10.24a4.02 4.02 0 0 1 4.015 4.015 4.02 4.02 0 0 1-4.015 4.015 4.02 4.02 0 0 1-4.015-4.015 4.02 4.02 0 0 1 4.015-4.015m0-2.443a6.46 6.46 0 0 0-6.458 6.458 6.46 6.46 0 0 0 6.458 6.459 6.46 6.46 0 0 0 6.459-6.459 6.46 6.46 0 0 0-6.459-6.458zm50.517 2.443a4.02 4.02 0 0 1 4.015 4.015 4.02 4.02 0 0 1-4.015 4.015 4.02 4.02 0 0 1-4.016-4.015 4.02 4.02 0 0 1 4.016-4.015m0-2.443a6.46 6.46 0 0 0-6.459 6.458 6.46 6.46 0 0 0 6.459 6.459 6.46 6.46 0 0 0 6.459-6.459 6.46 6.46 0 0 0-6.459-6.458zm-67.888.206H30.57v12.477h2.66v-4.297h3.164c2.22 0 4.018-1.876 4.018-4.095s-1.8-4.094-4.018-4.094zm0 5.745H33.23v-3.303h3.164c.868 0 1.574.78 1.574 1.65s-.706 1.65-1.574 1.65zM28.276 25.5a.67.67 0 0 0-.56.3l-.923 1.008a15.03 15.03 0 0 1-4.733 3.2 14.79 14.79 0 0 1-5.795 1.17c-2.012 0-3.96-.393-5.795-1.17a14.82 14.82 0 0 1-4.733-3.19 14.85 14.85 0 0 1-3.192-4.733 14.93 14.93 0 0 1-1.17-5.823 14.8 14.8 0 0 1 1.17-5.795 14.84 14.84 0 0 1 3.192-4.733C7.105 4.366 8.7 3.294 10.47 2.542a14.79 14.79 0 0 1 5.795-1.17c2.012 0 3.96.393 5.795 1.17a14.8 14.8 0 0 1 3.569 2.144c-.06.175-.1.358-.1.543a1.68 1.68 0 1 0 3.36 0 1.68 1.68 0 0 0-1.68-1.68 1.67 1.67 0 0 0-.65.131C23.754 1.38 20.166 0 16.255 0 7.27-.002 0 7.28 0 16.262s7.282 16.264 16.264 16.264c5.025 0 9.515-2.28 12.498-5.86.124-.124.2-.296.2-.486a.69.69 0 0 0-.688-.688z" stroke="none" fill="#333" fill-rule="nonzero"/></symbol></svg>