<svg xmlns="http://www.w3.org/2000/svg" xmlns:xlink="http://www.w3.org/1999/xlink" viewBox="0 0 95 55" fill="#fff" fill-rule="evenodd" stroke="#000" stroke-linecap="round" stroke-linejoin="round"><use xlink:href="#C" x=".5" y=".5"/><defs><linearGradient x1="5.77%" y1="94.81%" x2="93.85%" y2="5.57%" id="A"><stop offset="0%" stop-color="#070135"/><stop offset="100%" stop-color="#612d50"/></linearGradient><path id="B" d="M17.78 39.584a2.69 2.69 0 0 0-2.285 1.133c-.56.75-.84 1.777-.84 3.086s.277 2.34.83 3.096c.56.75 1.325 1.123 2.295 1.123a2.68 2.68 0 0 0 2.275-1.133c.56-.755.84-1.784.84-3.086 0-1.296-.28-2.32-.84-3.076-.56-.762-1.318-1.143-2.275-1.143m0-1.523c1.562 0 2.8.508 3.682 1.523s1.338 2.422 1.338 4.22-.446 3.197-1.338 4.22c-.892 1.016-2.12 1.523-3.682 1.523-1.57 0-2.8-.508-3.7-1.523-.885-1.022-1.328-2.428-1.328-4.22 0-1.797.443-3.203 1.328-4.22.892-1.016 2.122-1.523 3.7-1.523"/></defs><symbol id="C" overflow="visible"><g stroke="none" fill-rule="nonzero"><path d="M30.51 5.106C30.51 2.277 32.788 0 35.617 0h21.395c2.83 0 5.106 2.277 5.106 5.106v21.526c0 2.83-2.277 5.106-5.106 5.106H35.617c-2.83 0-5.106-2.277-5.106-5.106z" fill="url(#A)"/><path d="M46.553 13.663c.807 0 1.42-.173 1.836-.527s.625-.87.625-1.554c0-.676-.208-1.2-.625-1.54-.42-.36-1.03-.54-1.836-.54H43.72v4.16h2.834m.173 8.6c1.03 0 1.8-.215 2.315-.645.523-.43.785-1.08.785-1.95 0-.852-.257-1.488-.772-1.91-.515-.43-1.29-.645-2.328-.645H43.72v5.15h3.007m4.763-7.07c1.1.316 1.952.9 2.555 1.75s.905 1.896.905 3.134c0 1.896-.648 3.3-1.943 4.24s-3.264 1.396-5.907 1.396h-8.502V6.052h7.69c2.76 0 4.754.412 5.987 1.238 1.242.825 1.863 2.146 1.863 3.964 0 .957-.226 1.773-.678 2.45-.452.667-1.11 1.16-1.97 1.488"/><g fill="#230f3d"><path d="M1.983 42.3v5.34h3.164c1.06 0 1.846-.218 2.354-.654.514-.443.77-1.117.77-2.02s-.257-1.582-.77-2.012c-.508-.436-1.292-.654-2.354-.654H1.983m0-5.996V40.7h2.92c.964 0 1.68-.18 2.148-.537.475-.365.713-.918.713-1.66 0-.736-.238-1.286-.713-1.65s-1.185-.547-2.148-.547h-2.92M.01 34.685h5.04c1.504 0 2.663.313 3.477.938s1.22 1.514 1.22 2.666c0 .892-.208 1.602-.625 2.13s-1.03.856-1.836.986c.97.208 1.722.645 2.256 1.3.54.658.8 1.48.8 2.47 0 1.302-.443 2.308-1.328 3.018s-2.145 1.064-3.78 1.064H0V34.68"/><use xlink:href="#B"/><use xlink:href="#B" x="12.128"/><path d="M39.573 35.218v3.105h3.7v1.396h-3.7v5.938c0 .892.12 1.465.36 1.72.247.254.745.38 1.494.38h1.846v1.504h-1.847c-1.387 0-2.344-.257-2.87-.77-.527-.52-.8-1.465-.8-2.832v-5.94h-1.318v-1.396h1.318V35.22h1.807m12.946 3.427v1.7a7.02 7.02 0 0 0-1.582-.586c-.547-.13-1.113-.195-1.7-.195-.892 0-1.563.137-2.012.4-.443.273-.664.684-.664 1.23 0 .417.16.745.48.986.32.234.96.46 1.924.674l.615.137c1.276.273 2.18.66 2.715 1.162.54.495.8 1.188.8 2.08a2.85 2.85 0 0 1-1.2 2.412c-.8.592-1.904.9-3.3.9-.586 0-1.198-.06-1.836-.176-.632-.1-1.3-.28-2.002-.508v-1.855c.664.345 1.318.605 1.963.78a7.51 7.51 0 0 0 1.914.254c.846 0 1.497-.143 1.953-.43.456-.293.684-.703.684-1.23 0-.488-.166-.863-.498-1.123-.326-.26-1.045-.5-2.158-.752l-.625-.146c-1.113-.234-1.917-.592-2.412-1.074-.495-.488-.742-1.156-.742-2.002 0-1.03.365-1.823 1.094-2.383s1.764-.84 3.105-.84a11.41 11.41 0 0 1 1.875.146 7.98 7.98 0 0 1 1.621.439m5.133-3.43v3.105h3.7v1.396h-3.7v5.938c0 .892.12 1.465.36 1.72.247.254.745.38 1.494.38h1.848v1.504H59.5c-1.387 0-2.344-.257-2.87-.77-.527-.52-.8-1.465-.8-2.832v-5.94h-1.318v-1.396h1.318V35.22h1.816m12.3 4.785a2.27 2.27 0 0 0-.664-.254 3.15 3.15 0 0 0-.78-.088c-1.016 0-1.797.332-2.344.996-.54.658-.8 1.605-.8 2.842v5.762H63.56v-10.94h1.807v1.7c.378-.664.87-1.156 1.475-1.475.605-.326 1.34-.488 2.207-.488.137.001.274.01.4.03l.498.068.01 1.846m6.774 3.76c-1.452 0-2.458.166-3.018.498s-.84.898-.84 1.7c0 .638.208 1.146.625 1.523.423.37.996.557 1.72.557.996 0 1.794-.352 2.393-1.055.605-.7.908-1.65.908-2.822v-.4h-1.787m3.584-.742v6.24H78.53v-1.66c-.4.664-.92 1.156-1.533 1.475-.612.312-1.36.47-2.246.47-1.12 0-2.012-.312-2.676-.937-.658-.632-.986-1.475-.986-2.53 0-1.23.4-2.158 1.23-2.783s2.057-.937 3.7-.937h2.52v-.176c0-.827-.273-1.465-.82-1.914-.54-.456-1.302-.684-2.285-.684-.625 0-1.234.075-1.826.225a7.24 7.24 0 0 0-1.709.674v-1.66c.658-.254 1.296-.443 1.914-.566a8.76 8.76 0 0 1 1.807-.195c1.582 0 2.764.4 3.545 1.23s1.172 2.064 1.172 3.73m5.35 4.596v5.8H83.88V38.324h1.807v1.66c.378-.65.853-1.133 1.426-1.445.58-.32 1.27-.48 2.07-.48a3.91 3.91 0 0 1 3.232 1.582c.833 1.055 1.25 2.44 1.25 4.16s-.417 3.105-1.25 4.16a3.91 3.91 0 0 1-3.232 1.582c-.8 0-1.5-.156-2.07-.47-.573-.32-1.048-.804-1.426-1.455M91.8 43.8c0-1.322-.273-2.357-.82-3.105-.54-.755-1.286-1.133-2.236-1.133a2.62 2.62 0 0 0-2.246 1.133c-.54.75-.8 1.784-.8 3.105s.27 2.36.8 3.115c.547.75 1.296 1.123 2.246 1.123s1.696-.374 2.236-1.123c.547-.755.82-1.794.82-3.115"/></g></g></symbol></svg>