<svg xmlns="http://www.w3.org/2000/svg" xmlns:xlink="http://www.w3.org/1999/xlink" viewBox="0 0 100 44" fill="#fff" fill-rule="evenodd" stroke="#000" stroke-linecap="round" stroke-linejoin="round"><use xlink:href="#A" x=".5" y=".5"/><symbol id="A" overflow="visible"><g stroke="none" fill="#000" fill-rule="nonzero"><path d="M2.468 1.498v3.64a5.22 5.22 0 0 1 .914-.85c.3-.2.634-.37.987-.47a4.11 4.11 0 0 1 1.157-.154 3.39 3.39 0 0 1 1.618.397 3.06 3.06 0 0 1 1.52 2.128c.064.415.093.834.1 1.254v4.693a1.62 1.62 0 0 1-.34 1.117 1.14 1.14 0 0 1-.89.38q-1.214 0-1.214-1.5v-4.15a3.8 3.8 0 0 0-.348-1.813 1.38 1.38 0 0 0-1.327-.63 1.99 1.99 0 0 0-1.181.372 2.25 2.25 0 0 0-.809 1.02c-.162.637-.228 1.294-.194 1.95v3.237a1.62 1.62 0 0 1-.332 1.109c-.223.257-.55.4-.9.388q-1.214 0-1.214-1.5V1.496C-.025 1.098.085.702.32.38.55.127.88-.007 1.22.015a1.14 1.14 0 0 1 .914.38 1.62 1.62 0 0 1 .324 1.109zM17.415 12.26a7.58 7.58 0 0 1-1.724 1.036 4.86 4.86 0 0 1-1.86.348 3.53 3.53 0 0 1-1.618-.372c-.454-.228-.835-.578-1.1-1.012a2.62 2.62 0 0 1-.388-1.384c-.014-.633.215-1.246.64-1.716a3.19 3.19 0 0 1 1.748-.955l1.157-.243q.923-.186 1.618-.348.696-.162 1.432-.38c.013-.503-.122-.998-.388-1.424a1.75 1.75 0 0 0-1.529-.421c-.483-.03-.967.06-1.408.26a2.3 2.3 0 0 0-.809.809q-.34.518-.486.688a.81.81 0 0 1-.599.17c-.263.004-.517-.092-.712-.267a.87.87 0 0 1-.3-.68 2.08 2.08 0 0 1 .461-1.254c.378-.458.873-.805 1.432-1.003a6.5 6.5 0 0 1 2.428-.397 6.83 6.83 0 0 1 2.54.38 2.37 2.37 0 0 1 1.311 1.206c.28.696.4 1.443.38 2.193q0 .866 0 1.457 0 .6 0 1.335c-.001.468.064.934.194 1.384a4.48 4.48 0 0 1 .227.995.91.91 0 0 1-.356.688 1.19 1.19 0 0 1-.809.308c-.285-.016-.553-.144-.744-.356a5.23 5.23 0 0 1-.744-1.052zm-.162-3.544a12.39 12.39 0 0 1-1.57.421q-1.028.218-1.424.324a1.94 1.94 0 0 0-.753.405c-.234.203-.364.5-.356.8a1.25 1.25 0 0 0 .42.947 1.56 1.56 0 0 0 1.109.388 2.86 2.86 0 0 0 1.343-.316 2.13 2.13 0 0 0 .906-.809 3.76 3.76 0 0 0 .332-1.83zm7.097-3.698v.3a4.29 4.29 0 0 1 1.416-1.254 3.77 3.77 0 0 1 1.764-.397 3.52 3.52 0 0 1 1.732.421 2.68 2.68 0 0 1 1.101 1.198 2.84 2.84 0 0 1 .316.971 10.01 10.01 0 0 1 .073 1.327v4.564a1.62 1.62 0 0 1-.34 1.117c-.23.243-.548.38-.882.38a1.21 1.21 0 0 1-.882-.38 1.62 1.62 0 0 1-.34-1.109V8.053c.048-.638-.055-1.278-.3-1.87-.284-.458-.8-.708-1.343-.64a1.99 1.99 0 0 0-1.157.397 2.25 2.25 0 0 0-.809 1.052c-.15.67-.21 1.36-.178 2.047v3.075a1.62 1.62 0 0 1-.348 1.117 1.17 1.17 0 0 1-.9.372 1.11 1.11 0 0 1-.874-.388 1.62 1.62 0 0 1-.34-1.109v-7.04c-.027-.374.082-.745.308-1.044a1.06 1.06 0 0 1 .809-.348c.205-.002.406.05.583.154a1.09 1.09 0 0 1 .421.461 1.62 1.62 0 0 1 .162.736zm15.602 7.218v-.243a6.24 6.24 0 0 1-.971.923c-.317.236-.67.42-1.044.542a3.65 3.65 0 0 1-1.23.186 3.62 3.62 0 0 1-1.618-.372c-.506-.255-.948-.62-1.295-1.068-.37-.484-.643-1.033-.8-1.618-.194-.657-.3-1.338-.283-2.023a5.27 5.27 0 0 1 1.125-3.585 3.73 3.73 0 0 1 2.954-1.287 3.96 3.96 0 0 1 1.788.364c.536.283 1.016.662 1.416 1.117V1.547a1.83 1.83 0 0 1 .299-1.141 1.03 1.03 0 0 1 .858-.388 1.06 1.06 0 0 1 .858.356 1.62 1.62 0 0 1 .299 1.044v10.82c.03.38-.087.755-.324 1.052-.208.225-.502.352-.8.348a1.07 1.07 0 0 1-.809-.364c-.263-.28-.408-.65-.405-1.036zm-4.855-3.6a4.18 4.18 0 0 0 .308 1.7 2.37 2.37 0 0 0 .81 1.052c.347.233.755.357 1.173.356a2.17 2.17 0 0 0 1.181-.34c.38-.254.675-.614.85-1.036a4.19 4.19 0 0 0 .397-1.748 4.05 4.05 0 0 0-.316-1.683c-.183-.432-.483-.805-.866-1.076a2.07 2.07 0 0 0-1.2-.372c-.432-.006-.855.127-1.206.38a2.43 2.43 0 0 0-.809 1.092 4.36 4.36 0 0 0-.299 1.659zm9.63 3.512V1.498a1.62 1.62 0 0 1 .332-1.117 1.11 1.11 0 0 1 .882-.38c.34-.014.668.122.898.372a1.62 1.62 0 0 1 .34 1.117v10.65a1.62 1.62 0 0 1-.348 1.117 1.17 1.17 0 0 1-.9.372 1.11 1.11 0 0 1-.874-.388 1.62 1.62 0 0 1-.34-1.101zm11.84-2.897h-4.8c-.005.5.112 1.016.34 1.473a2.25 2.25 0 0 0 2.072 1.287 2.96 2.96 0 0 0 .81-.105c.25-.072.487-.18.704-.324s.433-.297.63-.47q.3-.243.744-.68a.81.81 0 0 1 .542-.162.89.89 0 0 1 .607.21c.16.15.247.363.235.583a1.62 1.62 0 0 1-.259.809c-.213.332-.488.62-.8.85a4.46 4.46 0 0 1-1.319.68c-.6.2-1.2.28-1.83.267a4.85 4.85 0 0 1-3.64-1.384c-.92-.992-1.403-2.314-1.335-3.666-.006-.685.103-1.366.324-2.015a4.45 4.45 0 0 1 .947-1.618c.426-.45.95-.8 1.53-1.02a5.48 5.48 0 0 1 2.015-.356 4.77 4.77 0 0 1 2.428.607 3.99 3.99 0 0 1 1.538 1.57c.352.617.538 1.313.542 2.023q0 .923-.526 1.198a3.3 3.3 0 0 1-1.489.243zm-4.8-1.392h4.45a2.98 2.98 0 0 0-.68-1.885 2.03 2.03 0 0 0-1.554-.591c-.57-.018-1.12.213-1.505.63a3.14 3.14 0 0 0-.712 1.845zm10.9-6.44v3.747a5.63 5.63 0 0 1 1.408-1.1 3.78 3.78 0 0 1 1.78-.38c.756-.016 1.5.186 2.144.583a3.8 3.8 0 0 1 1.432 1.683 6.18 6.18 0 0 1 .51 2.606c.008.693-.088 1.383-.283 2.047a4.84 4.84 0 0 1-.81 1.618 3.72 3.72 0 0 1-1.31 1.052 3.83 3.83 0 0 1-1.691.372c-.365-.008-.727-.065-1.076-.17a3.1 3.1 0 0 1-.809-.356c-.214-.13-.415-.283-.6-.453q-.243-.243-.647-.704v.243a1.48 1.48 0 0 1-.332 1.044 1.11 1.11 0 0 1-.809.356 1.05 1.05 0 0 1-.809-.356 1.56 1.56 0 0 1-.308-1.044V1.523c-.028-.398.078-.793.3-1.125a1.01 1.01 0 0 1 .809-.38c.332-.02.655.114.874.364a1.57 1.57 0 0 1 .227 1.028zm.113 7.283c-.053.806.186 1.604.672 2.25.428.527 1.077.826 1.756.8.637.001 1.237-.3 1.618-.8a3.51 3.51 0 0 0 .647-2.331c.008-.552-.085-1.1-.275-1.618a2.43 2.43 0 0 0-.809-1.084 1.94 1.94 0 0 0-1.198-.38 2.13 2.13 0 0 0-1.246.38 2.54 2.54 0 0 0-.842 1.084c-.22.542-.328 1.123-.316 1.707zm15.327 3.56c-.526.42-1.106.77-1.724 1.036a4.86 4.86 0 0 1-1.86.348 3.53 3.53 0 0 1-1.618-.372c-.454-.228-.835-.578-1.1-1.012a2.62 2.62 0 0 1-.388-1.384c-.014-.633.215-1.246.64-1.716a3.19 3.19 0 0 1 1.748-.955l1.157-.243q.923-.186 1.618-.348.696-.162 1.432-.38c.013-.503-.122-.998-.388-1.424a1.75 1.75 0 0 0-1.505-.421c-.483-.03-.967.06-1.408.26a2.3 2.3 0 0 0-.809.809q-.34.518-.486.688a.81.81 0 0 1-.599.17 1.05 1.05 0 0 1-.704-.308.87.87 0 0 1-.3-.68 2.08 2.08 0 0 1 .461-1.254c.378-.458.873-.805 1.432-1.003a6.5 6.5 0 0 1 2.428-.397c.863-.035 1.726.094 2.54.38a2.37 2.37 0 0 1 1.311 1.206c.28.696.4 1.443.38 2.193q0 .866 0 1.457 0 .6 0 1.335c.004.5.08.974.227 1.44.1.312.186.635.227.963a.91.91 0 0 1-.356.688 1.19 1.19 0 0 1-.809.308c-.285-.016-.553-.144-.744-.356-.312-.3-.584-.658-.81-1.036zm-.162-3.544c-.514.175-1.038.315-1.57.42q-1.028.218-1.424.324a1.94 1.94 0 0 0-.753.405c-.234.203-.364.5-.356.8a1.25 1.25 0 0 0 .42.947 1.56 1.56 0 0 0 1.109.388 2.86 2.86 0 0 0 1.343-.316 2.13 2.13 0 0 0 .906-.809 3.76 3.76 0 0 0 .332-1.83zm7.323 1.376v2.047a1.62 1.62 0 0 1-.348 1.117 1.17 1.17 0 0 1-.9.372c-.333.01-.653-.13-.874-.38a1.62 1.62 0 0 1-.34-1.117V5.3q0-1.618 1.198-1.618a1 1 0 0 1 .882.388 2.12 2.12 0 0 1 .299 1.141 4.24 4.24 0 0 1 .906-1.14 1.86 1.86 0 0 1 1.238-.388c.524.003 1.038.137 1.497.388.424.17.7.57.728 1.028a.97.97 0 0 1-.308.744c-.177.182-.418.286-.672.3-.22-.033-.438-.1-.647-.17-.294-.103-.603-.16-.914-.17a1.34 1.34 0 0 0-.882.283 1.81 1.81 0 0 0-.534.81c-.137.43-.224.876-.26 1.327q-.08.76-.08 1.86zm13.07.324a2.84 2.84 0 0 1-1.958 2.832 6.54 6.54 0 0 1-2.347.372 5.73 5.73 0 0 1-2.266-.405c-.545-.208-1.026-.557-1.392-1.012a2.04 2.04 0 0 1-.445-1.214c-.003-.258.1-.507.283-.688.193-.2.457-.293.728-.283a.81.81 0 0 1 .591.186c.16.155.294.336.397.534.215.397.527.734.906.98a2.72 2.72 0 0 0 1.432.324 2.07 2.07 0 0 0 1.206-.332c.275-.154.452-.438.47-.753a1.02 1.02 0 0 0-.494-.947c-.5-.264-1.055-.455-1.618-.566a13.33 13.33 0 0 1-2.063-.664c-.5-.2-.924-.514-1.27-.914a2.09 2.09 0 0 1-.477-1.392 2.43 2.43 0 0 1 .437-1.392 3.02 3.02 0 0 1 1.295-1.044 4.97 4.97 0 0 1 2.072-.388c.575-.008 1.15.058 1.707.194.45.108.88.288 1.27.534a2.62 2.62 0 0 1 .809.736 1.44 1.44 0 0 1 .267.809c.007.26-.096.5-.283.688a1.12 1.12 0 0 1-.81.267.99.99 0 0 1-.64-.218c-.224-.194-.428-.41-.607-.647s-.4-.428-.655-.575c-.318-.16-.672-.236-1.028-.218-.4-.015-.774.083-1.1.283a.81.81 0 0 0-.437.704.76.76 0 0 0 .324.631 2.68 2.68 0 0 0 .874.405q.55.162 1.505.405a8.08 8.08 0 0 1 1.861.664 3.1 3.1 0 0 1 1.092.914c.248.35.378.77.372 1.198zM22.23 33.14c.606-.498 1.048-1.166 1.27-1.918.443-1.155-.123-2.452-1.27-2.913-3.722-1.885-6.126 1.473-6.474 2.266s-.97 2.023-.566 4.855 1.756 5.446 6.03 6.474a18.1 18.1 0 0 0 12.138-1.416c3.77-1.796 10.843-4.952 12.624-5.26a15.49 15.49 0 0 1 3.569-.445V30.47a9.88 9.88 0 0 0-9.565-5.033c-6.822.534-9.533 4.046-11.2 5.55s-4.742 5.05-6.797 4.426-2.646-3.172-1.918-3.965 1.295-.647 1.756 0a3.43 3.43 0 0 1 .405 1.691z"/><path d="M76.625 33.14c-.606-.498-1.048-1.166-1.27-1.918-.443-1.155.123-2.452 1.27-2.913 3.722-1.885 6.126 1.473 6.474 2.266s.97 2.023.566 4.855-1.756 5.446-6.03 6.474a18.1 18.1 0 0 1-12.138-1.416c-3.77-1.796-10.843-4.952-12.624-5.26-1.168-.287-2.366-.436-3.57-.445V30.47a9.88 9.88 0 0 1 9.565-5.033c6.822.534 9.533 4.046 11.2 5.55s4.742 5.05 6.797 4.426 2.646-3.172 1.918-3.965-1.295-.647-1.756 0a3.43 3.43 0 0 0-.405 1.691z"/></g></symbol></svg>