<svg xmlns="http://www.w3.org/2000/svg" xmlns:xlink="http://www.w3.org/1999/xlink" viewBox="0 0 350.625 85" fill="#fff" fill-rule="evenodd" stroke="#000" stroke-linecap="round" stroke-linejoin="round"><use xlink:href="#A" x="10.313" y="2.5"/><symbol id="A" overflow="visible"><path d="M41.133 7.282h-17.12V60.13h-6.995V7.282H0V1.04h41.133v6.242zM73.4 17.894l-19.522 49C50.424 75.63 45.517 80 39.253 80c-1.775 0-3.236-.208-4.385-.52v-6.034c1.462.52 2.82.728 3.967.728 3.445 0 5.95-2.08 7.726-6.138l3.34-8-16.495-42.133h7.517L52.407 50.35c.105.416.418 1.456.835 3.225h.2c.104-.624.418-1.664.835-3.12l12.006-32.562h7.1zm11.066 36.1h-.2V79.48H77.46V17.894h6.786v7.386h.2c3.34-5.618 8.248-8.426 14.616-8.426 5.43 0 9.7 1.873 12.736 5.618s4.594 8.843 4.594 15.2c0 7.074-1.775 12.692-5.22 16.957s-8.143 6.346-14.094 6.346c-5.324.208-9.605-2.185-12.632-6.97zm-.104-16.957v5.93c0 3.537 1.148 6.45 3.445 8.843s5.115 3.64 8.665 3.64c4.07 0 7.308-1.56 9.7-4.68 2.297-3.12 3.445-7.5 3.445-13.108 0-4.68-1.044-8.426-3.237-11.027-2.192-2.705-5.115-3.953-8.874-3.953-3.967 0-7.1 1.353-9.5 4.057-2.506 2.705-3.654 6.138-3.654 10.3zm73.6 3.64h-29.858c.104 4.68 1.357 8.323 3.758 10.923s5.742 3.85 10.022 3.85c4.802 0 9.187-1.56 13.154-4.68v6.346c-3.758 2.705-8.665 4.057-14.72 4.057-5.95 0-10.648-1.873-14.094-5.722S121.1 46.2 121.1 39.324c0-6.554 1.88-11.964 5.637-16.02 3.758-4.16 8.352-6.242 13.885-6.242s9.813 1.77 12.84 5.4c3.028 3.537 4.594 8.53 4.594 14.876l-.104 3.33zm-6.995-5.722c0-3.953-.94-6.97-2.82-9.155s-4.5-3.225-7.725-3.225-5.95 1.144-8.143 3.433-3.654 5.306-4.176 8.947h22.863zm10.335 23.095v-4.68c4.28 2.705 8.56 4.057 12.945 4.057 4.594 0 8.143-.936 10.544-2.913s3.55-4.577 3.55-8c0-3.017-.835-5.4-2.4-7.282-1.566-1.768-5.115-4.265-10.44-7.386-6.055-3.537-9.813-6.45-11.38-8.74a14.53 14.53 0 0 1-2.401-8.114c0-4.16 1.67-7.698 4.907-10.6S174.24 0 179.668 0c3.55 0 7.1.624 10.544 1.77v4.265c-3.445-1.56-7.203-2.393-11.17-2.393-4.072 0-7.204 1.04-9.605 3.017-2.4 2.08-3.55 4.577-3.55 7.698 0 3.017.835 5.4 2.4 7.178s5.115 4.265 10.44 7.282c5.533 3.12 9.187 5.93 11.066 8.322s2.714 5.2 2.714 8.426c0 4.577-1.566 8.218-4.698 11.13s-7.62 4.265-13.363 4.265c-2.088 0-4.385-.312-7.1-.936s-4.698-1.144-6.055-1.977zm66.5.208c-3.132 1.873-6.9 2.913-11.275 2.913-5.742 0-10.44-1.977-14-5.93s-5.324-9.05-5.324-15.5c0-6.658 1.984-12.172 5.95-16.437s9.082-6.45 15.346-6.45c3.236 0 6.368.624 9.396 1.977v4.265a18.58 18.58 0 0 0-9.918-2.809c-5 0-8.978 1.768-12.1 5.306s-4.594 8.218-4.594 13.836c0 5.514 1.462 9.883 4.28 13.212s6.577 4.993 11.17 4.993c4.28 0 7.934-1.144 11.066-3.33v3.953zm25.264-36.4c-1.253-.936-2.714-1.352-4.5-1.352-3.34 0-6.16 1.768-8.352 5.202-2.297 3.433-3.34 8.323-3.34 14.67v19.87h-3.76v-42.34h3.76v9.363h.2c.94-3.225 2.505-5.722 4.594-7.5s4.5-2.705 7.308-2.705c1.566 0 3.028.208 4.176.728v4.057h-.104zm6.055-14.564c-.835 0-1.566-.312-2.192-.936a3.05 3.05 0 0 1-.94-2.289c0-.936.313-1.665.94-2.185s1.357-.832 2.192-.832 1.566.312 2.297.832c.626.52.94 1.248.94 2.185 0 .832-.313 1.664-.94 2.3-.73.624-1.462.936-2.297.936zm-1.88 52.848V17.894h3.758V60.13h-3.758zm16.808-7.5h-.2v26.944h-3.758v-61.7h3.758v8.74h.2c1.566-3.12 3.654-5.514 6.473-7.178s5.95-2.497 9.3-2.497c5.43 0 9.605 1.873 12.632 5.514 3.028 3.745 4.5 8.74 4.5 15.085 0 7.074-1.775 12.796-5.22 17.165s-8.04 6.554-13.676 6.554c-6.264-.104-10.962-2.913-14-8.635zm-.2-15.7v5.306c0 4.265 1.357 7.906 3.967 10.923 2.714 3.017 6.16 4.577 10.544 4.577 4.28 0 7.83-1.872 10.544-5.514 2.714-3.745 4.07-8.53 4.07-14.564 0-5.306-1.252-9.467-3.758-12.588s-5.742-4.68-9.918-4.68c-4.907 0-8.77 1.664-11.484 4.993s-3.967 7.074-3.967 11.547zM330 59.506c-1.984.936-3.863 1.352-5.533 1.352-6.264 0-9.396-3.745-9.396-11.235V21.43h-7.62v-3.433h7.62V6.97l3.758-1.248v12.276H330v3.433h-11.17v27.88c0 2.913.418 4.994 1.357 6.346s2.506 1.977 4.698 1.977c1.566 0 3.236-.52 5.116-1.56v3.433z" fill="#007acc" stroke="none"/></symbol></svg>